<svg width="26" height="22" viewBox="0 0 26 22" fill="none" xmlns="http://www.w3.org/2000/svg">
<path d="M23.2516 2.28124C21.9901 0.913024 20.2591 0.159472 18.3772 0.159472C16.9705 0.159472 15.6822 0.604203 14.5481 1.48121C13.9758 1.9239 13.4573 2.4655 13.0001 3.09764C12.5431 2.46568 12.0243 1.9239 11.4519 1.48121C10.3179 0.604203 9.02964 0.159472 7.62294 0.159472C5.74101 0.159472 4.00986 0.913024 2.74837 2.28124C1.50193 3.63347 0.815308 5.48082 0.815308 7.48323C0.815308 9.5442 1.58336 11.4308 3.23233 13.4205C4.70745 15.2004 6.82755 17.0072 9.28269 19.0994C10.121 19.8139 11.0713 20.6238 12.058 21.4865C12.3187 21.7148 12.6531 21.8405 13.0001 21.8405C13.3468 21.8405 13.6815 21.7148 13.9418 21.4869C14.9285 20.624 15.8793 19.8138 16.718 19.0989C19.1728 17.007 21.2929 15.2004 22.768 13.4204C24.417 11.4308 25.1848 9.5442 25.1848 7.48304C25.1848 5.48082 24.4982 3.63347 23.2516 2.28124Z" fill="#FF3030"/>
</svg>
