<svg width="30" height="30" viewBox="0 0 30 30" fill="none" xmlns="http://www.w3.org/2000/svg">
<path d="M25.2516 6.28124C23.9901 4.91302 22.2591 4.15947 20.3772 4.15947C18.9705 4.15947 17.6822 4.6042 16.5481 5.48121C15.9758 5.9239 15.4573 6.4655 15.0001 7.09764C14.5431 6.46568 14.0243 5.9239 13.4519 5.48121C12.3179 4.6042 11.0296 4.15947 9.62294 4.15947C7.74101 4.15947 6.00986 4.91302 4.74837 6.28124C3.50193 7.63347 2.81531 9.48082 2.81531 11.4832C2.81531 13.5442 3.58336 15.4308 5.23233 17.4205C6.70745 19.2004 8.82755 21.0072 11.2827 23.0994C12.121 23.8139 13.0713 24.6238 14.058 25.4865C14.3187 25.7148 14.6531 25.8405 15.0001 25.8405C15.3468 25.8405 15.6815 25.7148 15.9418 25.4869C16.9285 24.624 17.8793 23.8138 18.718 23.0989C21.1728 21.007 23.2929 19.2004 24.768 17.4204C26.417 15.4308 27.1848 13.5442 27.1848 11.483C27.1848 9.48082 26.4982 7.63347 25.2516 6.28124Z" fill="#FF3030"/>
</svg>
