<svg width="30" height="30" viewBox="0 0 30 30" fill="none" xmlns="http://www.w3.org/2000/svg">
<path d="M21.1305 2.34351H8.86951C7.13871 2.34351 5.47879 3.03106 4.25493 4.25493C3.03106 5.47879 2.34351 7.13871 2.34351 8.86951V21.1305C2.34351 22.8613 3.03106 24.5212 4.25493 25.7451C5.47879 26.9689 7.13871 27.6565 8.86951 27.6565H21.1305C22.8613 27.6565 24.5212 26.9689 25.7451 25.7451C26.9689 24.5212 27.6565 22.8613 27.6565 21.1305V8.86951C27.6565 7.13871 26.9689 5.47879 25.7451 4.25493C24.5212 3.03106 22.8613 2.34351 21.1305 2.34351ZM21.9897 20.949C21.8553 21.0837 21.6957 21.1905 21.5199 21.2633C21.3441 21.3361 21.1556 21.3735 20.9654 21.3732H9.03266C8.64847 21.3732 8.28002 21.2206 8.00836 20.949C7.7367 20.6773 7.58409 20.3088 7.58409 19.9247C7.58409 19.5405 7.7367 19.172 8.00836 18.9004C8.28002 18.6287 8.64847 18.4761 9.03266 18.4761H20.9673C21.2537 18.4762 21.5335 18.5613 21.7716 18.7204C22.0096 18.8795 22.1951 19.1056 22.3047 19.3701C22.4144 19.6346 22.4431 19.9257 22.3874 20.2065C22.3317 20.4874 22.194 20.7454 21.9917 20.9481L21.9897 20.949ZM21.9897 16.0244C21.8553 16.1591 21.6957 16.2659 21.5199 16.3387C21.3441 16.4115 21.1556 16.4488 20.9654 16.4486H9.03266C8.64847 16.4486 8.28002 16.296 8.00836 16.0243C7.7367 15.7526 7.58409 15.3842 7.58409 15C7.58409 14.6158 7.7367 14.2474 8.00836 13.9757C8.28002 13.704 8.64847 13.5514 9.03266 13.5514H20.9673C21.2537 13.5516 21.5335 13.6366 21.7716 13.7957C22.0096 13.9548 22.1951 14.1809 22.3047 14.4454C22.4144 14.71 22.4431 15.001 22.3874 15.2819C22.3317 15.5627 22.194 15.8208 21.9917 16.0234L21.9897 16.0244ZM21.9897 11.0997C21.8553 11.2344 21.6957 11.3412 21.5199 11.414C21.3441 11.4868 21.1556 11.5242 20.9654 11.5239H9.03266C8.64847 11.5239 8.28002 11.3713 8.00836 11.0996C7.7367 10.828 7.58409 10.4595 7.58409 10.0753C7.58409 9.69115 7.7367 9.3227 8.00836 9.05104C8.28002 8.77938 8.64847 8.62676 9.03266 8.62676H20.9673C21.2537 8.62692 21.5335 8.71193 21.7716 8.87105C22.0096 9.03017 22.1951 9.25627 22.3047 9.52078C22.4144 9.78529 22.4431 10.0764 22.3874 10.3572C22.3317 10.6381 22.194 10.8961 21.9917 11.0987L21.9897 11.0997Z" fill="#060A0F"/>
</svg>
