<svg width="47" height="50" viewBox="0 0 47 50" fill="none" xmlns="http://www.w3.org/2000/svg">
<path d="M47 3.15393C47 1.49708 45.6569 0.153931 44 0.153931H14.1C6.3168 0.153931 0 5.22186 0 11.4663V46.846C0 48.5029 1.34315 49.846 3 49.846H32.9C40.6832 49.846 47 44.7781 47 38.5337V3.15393Z" fill="#202b38"/>
<path fill-rule="evenodd" clip-rule="evenodd" d="M23.5 32.6274L24.9993 27.598L28.3081 30.8583C29.2998 31.8355 29.2998 33.4193 28.3081 34.3965L23.5 39.1387L18.6919 34.3965C17.7002 33.4193 17.7002 31.8355 18.6919 30.8583L23.5 26.1161V32.6274Z" fill="white"/>
<path fill-rule="evenodd" clip-rule="evenodd" d="M24.6328 24.9953L29.4409 29.7375C30.4326 30.7147 32.04 30.7147 33.0317 29.7375L37.8398 24.9953L33.0317 20.2531C32.04 19.2759 30.4326 19.2759 29.4409 20.2531L26.1321 23.5134L31.2363 24.9953H24.6328Z" fill="white"/>
<path fill-rule="evenodd" clip-rule="evenodd" d="M22.0007 22.4019L23.5 17.3726V23.8839L28.3081 19.1417C29.2998 18.1645 29.2998 16.5807 28.3081 15.6035L23.5 10.8613L18.6919 15.6035C17.7002 16.5807 17.7002 18.1645 18.6919 19.1417L22.0007 22.4019Z" fill="white"/>
<path fill-rule="evenodd" clip-rule="evenodd" d="M22.3673 24.9999L17.5592 20.2576C16.5675 19.2805 14.9601 19.2805 13.9684 20.2576L9.16028 24.9999L13.9684 29.7421C14.9601 30.7193 16.5675 30.7193 17.5592 29.7421L21.1124 26.241L20.868 26.4818L15.7638 25.0045H22.3673V24.9999Z" fill="white"/>
<path d="M31.1893 15.8815L30.1647 17.2662C30.0707 17.3912 30.1647 17.5718 30.3198 17.5718H32.3737C32.5335 17.5718 32.6228 17.3912 32.5288 17.2662L31.5042 15.8815C31.4243 15.7749 31.2692 15.7749 31.1893 15.8815Z" fill="white"/>
<path d="M15.7262 34.0352L16.7508 32.6505C16.8448 32.5255 16.7508 32.3449 16.5957 32.3449H14.5418C14.382 32.3449 14.2927 32.5255 14.3867 32.6505L15.4113 34.0352C15.4912 34.1417 15.6463 34.1417 15.7262 34.0352Z" fill="white"/>
<path fill-rule="evenodd" clip-rule="evenodd" d="M16.1634 16.3676L15.825 15.9092C15.7451 15.8027 15.59 15.8027 15.5101 15.9092L15.1717 16.3676H16.1634ZM14.932 16.6918H16.4078L16.8543 17.2939C16.9483 17.4189 16.8543 17.5995 16.6992 17.5995H14.6453C14.4855 17.5995 14.3962 17.4189 14.4902 17.2939L14.9367 16.6918H14.932Z" fill="white"/>
<path fill-rule="evenodd" clip-rule="evenodd" d="M31.8942 33.6554L31.5558 34.1092C31.4806 34.2158 31.3208 34.2158 31.2409 34.1092L30.9025 33.6554H31.8942ZM32.1339 33.3312H30.6581L30.2116 32.7292C30.1176 32.6041 30.2116 32.4235 30.3667 32.4235H32.4206C32.5804 32.4235 32.6697 32.6041 32.5757 32.7292L32.1292 33.3312H32.1339Z" fill="white"/>
</svg>
