<svg width="68" height="47" viewBox="0 0 68 47" fill="none" xmlns="http://www.w3.org/2000/svg">
<path d="M12.9353 30.7009C11.4697 34.3871 9.16034 38.0289 6.0737 41.5374C5.09664 42.6477 4.96341 44.2465 5.7628 45.49C6.38463 46.4671 7.40601 47 8.51631 47C8.82721 47 9.13814 46.9779 9.44904 46.8668C15.9774 44.9571 31.233 38.1843 31.6549 16.4669C31.8103 8.09536 25.6816 0.900666 17.7096 0.0790475C13.2906 -0.365093 8.8939 1.0782 5.62956 4.0094C2.36536 6.96283 0.5 11.182 0.5 15.5787C0.5 22.9066 5.69625 29.3242 12.9353 30.7009Z" fill="#94A0B0" fill-opacity="0.25"/>
<path d="M53.1502 0.0790475C48.7534 -0.365093 44.3566 1.0782 41.0924 4.0094C37.8281 6.96283 35.9628 11.182 35.9628 15.5787C35.9628 22.9066 41.159 29.3242 48.3981 30.7009C46.9325 34.3871 44.6231 38.0289 41.5365 41.5374C40.5594 42.6477 40.4262 44.2465 41.2257 45.49C41.8474 46.4671 42.8689 47 43.9792 47C44.29 47 44.6009 46.9779 44.9118 46.8667C51.4403 44.9571 66.6958 38.1843 67.1177 16.4669V16.1561C67.1177 7.91766 61.0555 0.900666 53.1502 0.0790475Z" fill="#94A0B0" fill-opacity="0.25"/>
</svg>
