<svg width="30" height="30" viewBox="0 0 30 30" fill="none" xmlns="http://www.w3.org/2000/svg">
<path d="M21.1307 2.34351H8.86975C7.13895 2.34351 5.47904 3.03106 4.25517 4.25493C3.03131 5.47879 2.34375 7.13871 2.34375 8.86951V21.1305C2.34375 22.8613 3.03131 24.5212 4.25517 25.7451C5.47904 26.9689 7.13895 27.6565 8.86975 27.6565H21.1307C22.8615 27.6565 24.5215 26.9689 25.7453 25.7451C26.9692 24.5212 27.6567 22.8613 27.6567 21.1305V8.86951C27.6567 7.13871 26.9692 5.47879 25.7453 4.25493C24.5215 3.03106 22.8615 2.34351 21.1307 2.34351ZM21.99 20.949C21.8556 21.0837 21.6959 21.1905 21.5201 21.2633C21.3443 21.3361 21.1559 21.3735 20.9656 21.3732H9.03291C8.64872 21.3732 8.28027 21.2206 8.00861 20.949C7.73695 20.6773 7.58433 20.3088 7.58433 19.9247C7.58433 19.5405 7.73695 19.172 8.00861 18.9004C8.28027 18.6287 8.64872 18.4761 9.03291 18.4761H20.9676C21.2539 18.4762 21.5338 18.5613 21.7718 18.7204C22.0098 18.8795 22.1954 19.1056 22.305 19.3701C22.4146 19.6346 22.4434 19.9257 22.3877 20.2065C22.3319 20.4874 22.1943 20.7454 21.992 20.9481L21.99 20.949ZM21.99 16.0244C21.8556 16.1591 21.6959 16.2659 21.5201 16.3387C21.3443 16.4115 21.1559 16.4488 20.9656 16.4486H9.03291C8.64872 16.4486 8.28027 16.296 8.00861 16.0243C7.73695 15.7526 7.58433 15.3842 7.58433 15C7.58433 14.6158 7.73695 14.2474 8.00861 13.9757C8.28027 13.704 8.64872 13.5514 9.03291 13.5514H20.9676C21.2539 13.5516 21.5338 13.6366 21.7718 13.7957C22.0098 13.9548 22.1954 14.1809 22.305 14.4454C22.4146 14.71 22.4434 15.001 22.3877 15.2819C22.3319 15.5627 22.1943 15.8208 21.992 16.0234L21.99 16.0244ZM21.99 11.0997C21.8556 11.2344 21.6959 11.3412 21.5201 11.414C21.3443 11.4868 21.1559 11.5242 20.9656 11.5239H9.03291C8.64872 11.5239 8.28027 11.3713 8.00861 11.0996C7.73695 10.828 7.58433 10.4595 7.58433 10.0753C7.58433 9.69115 7.73695 9.3227 8.00861 9.05104C8.28027 8.77938 8.64872 8.62676 9.03291 8.62676H20.9676C21.2539 8.62692 21.5338 8.71193 21.7718 8.87105C22.0098 9.03017 22.1954 9.25627 22.305 9.52078C22.4146 9.78529 22.4434 10.0764 22.3877 10.3572C22.3319 10.6381 22.1943 10.8961 21.992 11.0987L21.99 11.0997Z" fill="#FFBB00"/>
</svg>
