<svg width="30" height="30" viewBox="0 0 30 30" fill="none" xmlns="http://www.w3.org/2000/svg">
<path d="M14.8511 14.5681C16.413 14.5681 17.7655 14.0079 18.8706 12.9026C19.9757 11.7975 20.5359 10.4454 20.5359 8.88328C20.5359 7.32171 19.9757 5.96938 18.8704 4.86393C17.7652 3.75902 16.4128 3.19882 14.8511 3.19882C13.289 3.19882 11.9368 3.75902 10.8317 4.86411C9.72664 5.9692 9.16626 7.32153 9.16626 8.88328C9.16626 10.4454 9.72664 11.7977 10.8319 12.9028C11.9372 14.0077 13.2895 14.5681 14.8511 14.5681Z" fill="#FFBB00"/>
<path d="M24.798 21.3477C24.7661 20.8878 24.7016 20.3862 24.6068 19.8564C24.511 19.3227 24.3876 18.8181 24.2399 18.357C24.0874 17.8803 23.88 17.4096 23.6236 16.9585C23.3574 16.4903 23.0448 16.0827 22.694 15.7472C22.3272 15.3962 21.8781 15.1141 21.3588 14.9083C20.8413 14.7035 20.2678 14.5998 19.6543 14.5998C19.4133 14.5998 19.1803 14.6987 18.7303 14.9916C18.4534 15.1722 18.1294 15.3811 17.7679 15.6121C17.4587 15.8091 17.0398 15.9937 16.5225 16.1608C16.0178 16.3241 15.5053 16.407 14.9995 16.407C14.4936 16.407 13.9813 16.3241 13.4761 16.1608C12.9593 15.9939 12.5404 15.8093 12.2316 15.6123C11.8734 15.3835 11.5493 15.1746 11.2682 14.9914C10.8188 14.6985 10.5856 14.5996 10.3446 14.5996C9.73096 14.5996 9.15762 14.7035 8.64028 14.9084C8.12132 15.1139 7.67204 15.3961 7.30488 15.7474C6.95428 16.083 6.6415 16.4905 6.37571 16.9585C6.11947 17.4096 5.91203 17.8801 5.75933 18.3571C5.61186 18.8183 5.48851 19.3227 5.39271 19.8564C5.29781 20.3855 5.23335 20.8873 5.20148 21.3483C5.17014 21.7999 5.1543 22.2686 5.1543 22.742C5.1543 23.9741 5.54595 24.9715 6.31827 25.7071C7.08105 26.4329 8.09034 26.8012 9.3177 26.8012H20.6823C21.9097 26.8012 22.9186 26.4331 23.6815 25.7071C24.4541 24.972 24.8457 23.9744 24.8457 22.7418C24.8455 22.2663 24.8295 21.7972 24.798 21.3477Z" fill="#FFBB00"/>
</svg>
