<svg width="31" height="30" viewBox="0 0 31 30" fill="none" xmlns="http://www.w3.org/2000/svg">
<path d="M25.7515 6.28126C24.49 4.91304 22.759 4.15948 20.8771 4.15948C19.4704 4.15948 18.1821 4.60422 17.048 5.48122C16.4757 5.92391 15.9571 6.46551 15.4999 7.09765C15.0429 6.46569 14.5242 5.92391 13.9517 5.48122C12.8178 4.60422 11.5295 4.15948 10.1228 4.15948C8.24089 4.15948 6.50974 4.91304 5.24824 6.28126C4.00181 7.63349 3.31519 9.48083 3.31519 11.4832C3.31519 13.5442 4.08324 15.4308 5.73221 17.4206C7.20733 19.2004 9.32743 21.0072 11.7826 23.0994C12.6209 23.814 13.5712 24.6238 14.5579 25.4865C14.8185 25.7148 15.153 25.8405 15.4999 25.8405C15.8467 25.8405 16.1814 25.7148 16.4417 25.4869C17.4284 24.624 18.3792 23.8138 19.2179 23.0989C21.6726 21.007 23.7927 19.2004 25.2679 17.4204C26.9168 15.4308 27.6847 13.5442 27.6847 11.4831C27.6847 9.48083 26.9981 7.63349 25.7515 6.28126Z" fill="#060A0F"/>
</svg>
