<svg width="31" height="30" viewBox="0 0 31 30" fill="none" xmlns="http://www.w3.org/2000/svg">
<path d="M21.6305 2.34375H9.36951C7.63871 2.34375 5.97879 3.03131 4.75493 4.25517C3.53106 5.47904 2.84351 7.13895 2.84351 8.86975V21.1307C2.84351 22.8615 3.53106 24.5215 4.75493 25.7453C5.97879 26.9692 7.63871 27.6567 9.36951 27.6567H21.6305C23.3613 27.6567 25.0212 26.9692 26.2451 25.7453C27.4689 24.5215 28.1565 22.8615 28.1565 21.1307V8.86975C28.1565 7.13895 27.4689 5.47904 26.2451 4.25517C25.0212 3.03131 23.3613 2.34375 21.6305 2.34375ZM22.4897 20.9493C22.3553 21.084 22.1957 21.1908 22.0199 21.2636C21.8441 21.3364 21.6556 21.3737 21.4654 21.3735H9.53266C9.14847 21.3735 8.78002 21.2209 8.50836 20.9492C8.2367 20.6775 8.08409 20.3091 8.08409 19.9249C8.08409 19.5407 8.2367 19.1723 8.50836 18.9006C8.78002 18.6289 9.14847 18.4763 9.53266 18.4763H21.4673C21.7537 18.4765 22.0335 18.5615 22.2716 18.7206C22.5096 18.8797 22.6951 19.1058 22.8047 19.3703C22.9144 19.6349 22.9431 19.9259 22.8874 20.2068C22.8317 20.4876 22.694 20.7457 22.4917 20.9483L22.4897 20.9493ZM22.4897 16.0246C22.3553 16.1593 22.1957 16.2661 22.0199 16.3389C21.8441 16.4117 21.6556 16.4491 21.4654 16.4488H9.53266C9.14847 16.4488 8.78002 16.2962 8.50836 16.0245C8.2367 15.7529 8.08409 15.3844 8.08409 15.0002C8.08409 14.6161 8.2367 14.2476 8.50836 13.9759C8.78002 13.7043 9.14847 13.5517 9.53266 13.5517H21.4673C21.7537 13.5518 22.0335 13.6368 22.2716 13.796C22.5096 13.9551 22.6951 14.1812 22.8047 14.4457C22.9144 14.7102 22.9431 15.0013 22.8874 15.2821C22.8317 15.563 22.694 15.821 22.4917 16.0236L22.4897 16.0246ZM22.4897 11.1C22.3553 11.2346 22.1957 11.3415 22.0199 11.4143C21.8441 11.487 21.6556 11.5244 21.4654 11.5242H9.53266C9.14847 11.5242 8.78002 11.3715 8.50836 11.0999C8.2367 10.8282 8.08409 10.4598 8.08409 10.0756C8.08409 9.6914 8.2367 9.32295 8.50836 9.05128C8.78002 8.77962 9.14847 8.62701 9.53266 8.62701H21.4673C21.7537 8.62717 22.0335 8.71218 22.2716 8.8713C22.5096 9.03042 22.6951 9.25651 22.8047 9.52102C22.9144 9.78553 22.9431 10.0766 22.8874 10.3574C22.8317 10.6383 22.694 10.8963 22.4917 11.099L22.4897 11.1Z" fill="white"/>
</svg>
