<svg width="31" height="30" viewBox="0 0 31 30" fill="none" xmlns="http://www.w3.org/2000/svg">
<path d="M21.6305 2.34351H9.36951C7.63871 2.34351 5.97879 3.03106 4.75493 4.25493C3.53106 5.47879 2.84351 7.13871 2.84351 8.86951V21.1305C2.84351 22.8613 3.53106 24.5212 4.75493 25.7451C5.97879 26.9689 7.63871 27.6565 9.36951 27.6565H21.6305C23.3613 27.6565 25.0212 26.9689 26.2451 25.7451C27.4689 24.5212 28.1565 22.8613 28.1565 21.1305V8.86951C28.1565 7.13871 27.4689 5.47879 26.2451 4.25493C25.0212 3.03106 23.3613 2.34351 21.6305 2.34351ZM22.4897 20.949C22.3553 21.0837 22.1957 21.1905 22.0199 21.2633C21.8441 21.3361 21.6556 21.3735 21.4654 21.3732H9.53266C9.14847 21.3732 8.78002 21.2206 8.50836 20.949C8.2367 20.6773 8.08409 20.3088 8.08409 19.9247C8.08409 19.5405 8.2367 19.172 8.50836 18.9004C8.78002 18.6287 9.14847 18.4761 9.53266 18.4761H21.4673C21.7537 18.4762 22.0335 18.5613 22.2716 18.7204C22.5096 18.8795 22.6951 19.1056 22.8047 19.3701C22.9144 19.6346 22.9431 19.9257 22.8874 20.2065C22.8317 20.4874 22.694 20.7454 22.4917 20.9481L22.4897 20.949ZM22.4897 16.0244C22.3553 16.1591 22.1957 16.2659 22.0199 16.3387C21.8441 16.4115 21.6556 16.4488 21.4654 16.4486H9.53266C9.14847 16.4486 8.78002 16.296 8.50836 16.0243C8.2367 15.7526 8.08409 15.3842 8.08409 15C8.08409 14.6158 8.2367 14.2474 8.50836 13.9757C8.78002 13.704 9.14847 13.5514 9.53266 13.5514H21.4673C21.7537 13.5516 22.0335 13.6366 22.2716 13.7957C22.5096 13.9548 22.6951 14.1809 22.8047 14.4454C22.9144 14.71 22.9431 15.001 22.8874 15.2819C22.8317 15.5627 22.694 15.8208 22.4917 16.0234L22.4897 16.0244ZM22.4897 11.0997C22.3553 11.2344 22.1957 11.3412 22.0199 11.414C21.8441 11.4868 21.6556 11.5242 21.4654 11.5239H9.53266C9.14847 11.5239 8.78002 11.3713 8.50836 11.0996C8.2367 10.828 8.08409 10.4595 8.08409 10.0753C8.08409 9.69115 8.2367 9.3227 8.50836 9.05104C8.78002 8.77938 9.14847 8.62676 9.53266 8.62676H21.4673C21.7537 8.62692 22.0335 8.71193 22.2716 8.87105C22.5096 9.03017 22.6951 9.25627 22.8047 9.52078C22.9144 9.78529 22.9431 10.0764 22.8874 10.3572C22.8317 10.6381 22.694 10.8961 22.4917 11.0987L22.4897 11.0997Z" fill="#060A0F"/>
</svg>
