<svg width="31" height="30" viewBox="0 0 31 30" fill="none" xmlns="http://www.w3.org/2000/svg">
<path d="M25.7515 6.28095C24.49 4.91273 22.759 4.15918 20.8771 4.15918C19.4704 4.15918 18.1821 4.60391 17.048 5.48092C16.4757 5.9236 15.9571 6.4652 15.4999 7.09735C15.0429 6.46539 14.5242 5.9236 13.9517 5.48092C12.8178 4.60391 11.5295 4.15918 10.1228 4.15918C8.24089 4.15918 6.50974 4.91273 5.24824 6.28095C4.00181 7.63318 3.31519 9.48053 3.31519 11.4829C3.31519 13.5439 4.08324 15.4305 5.73221 17.4203C7.20733 19.2001 9.32743 21.0069 11.7826 23.0991C12.6209 23.8136 13.5712 24.6235 14.5579 25.4862C14.8185 25.7145 15.153 25.8402 15.4999 25.8402C15.8467 25.8402 16.1814 25.7145 16.4417 25.4866C17.4284 24.6237 18.3792 23.8135 19.2179 23.0986C21.6726 21.0067 23.7927 19.2001 25.2679 17.4201C26.9168 15.4305 27.6847 13.5439 27.6847 11.4828C27.6847 9.48053 26.9981 7.63318 25.7515 6.28095Z" fill="white"/>
</svg>
