<svg width="31" height="30" viewBox="0 0 31 30" fill="none" xmlns="http://www.w3.org/2000/svg">
<path d="M15.3511 14.5685C16.913 14.5685 18.2655 14.0083 19.3706 12.903C20.4757 11.7979 21.0359 10.4458 21.0359 8.88368C21.0359 7.32211 20.4757 5.96978 19.3704 4.86433C18.2652 3.75942 16.9128 3.19922 15.3511 3.19922C13.789 3.19922 12.4368 3.75942 11.3317 4.86451C10.2266 5.9696 9.66626 7.32193 9.66626 8.88368C9.66626 10.4458 10.2266 11.7981 11.3319 12.9032C12.4372 14.0081 13.7895 14.5685 15.3511 14.5685Z" fill="white"/>
<path d="M25.298 21.3481C25.2661 20.8882 25.2016 20.3866 25.1068 19.8568C25.011 19.3231 24.8876 18.8185 24.7399 18.3574C24.5874 17.8807 24.38 17.41 24.1236 16.9589C23.8574 16.4907 23.5448 16.0831 23.194 15.7476C22.8272 15.3966 22.3781 15.1145 21.8588 14.9086C21.3413 14.7039 20.7678 14.6002 20.1543 14.6002C19.9133 14.6002 19.6803 14.699 19.2303 14.992C18.9534 15.1726 18.6294 15.3815 18.2679 15.6125C17.9587 15.8095 17.5398 15.9941 17.0225 16.1612C16.5178 16.3245 16.0053 16.4074 15.4995 16.4074C14.9936 16.4074 14.4813 16.3245 13.9761 16.1612C13.4593 15.9943 13.0404 15.8097 12.7316 15.6127C12.3734 15.3839 12.0493 15.175 11.7682 14.9918C11.3188 14.6989 11.0856 14.6 10.8446 14.6C10.231 14.6 9.65762 14.7039 9.14028 14.9088C8.62132 15.1143 8.17204 15.3965 7.80488 15.7478C7.45428 16.0834 7.1415 16.4909 6.87571 16.9589C6.61947 17.41 6.41203 17.8805 6.25933 18.3575C6.11186 18.8187 5.98851 19.3231 5.89271 19.8568C5.79781 20.3858 5.73335 20.8877 5.70148 21.3487C5.67014 21.8003 5.6543 22.269 5.6543 22.7424C5.6543 23.9745 6.04595 24.9719 6.81827 25.7075C7.58105 26.4333 8.59034 26.8016 9.8177 26.8016H21.1823C22.4097 26.8016 23.4186 26.4335 24.1815 25.7075C24.9541 24.9724 25.3457 23.9748 25.3457 22.7422C25.3455 22.2667 25.3295 21.7976 25.298 21.3481Z" fill="white"/>
</svg>
