<svg width="30" height="30" viewBox="0 0 30 30" fill="none" xmlns="http://www.w3.org/2000/svg">
<path d="M25.2517 6.28126C23.9902 4.91304 22.2592 4.15948 20.3773 4.15948C18.9706 4.15948 17.6823 4.60422 16.5482 5.48122C15.9759 5.92391 15.4574 6.46551 15.0002 7.09765C14.5432 6.46569 14.0245 5.92391 13.452 5.48122C12.318 4.60422 11.0298 4.15948 9.62306 4.15948C7.74113 4.15948 6.00999 4.91304 4.74849 6.28126C3.50205 7.63349 2.81543 9.48083 2.81543 11.4832C2.81543 13.5442 3.58348 15.4308 5.23245 17.4206C6.70758 19.2004 8.82767 21.0072 11.2828 23.0994C12.1211 23.814 13.0714 24.6238 14.0581 25.4865C14.3188 25.7148 14.6533 25.8405 15.0002 25.8405C15.3469 25.8405 15.6816 25.7148 15.9419 25.4869C16.9286 24.624 17.8794 23.8138 18.7181 23.0989C21.1729 21.007 23.293 19.2004 24.7681 17.4204C26.4171 15.4308 27.1849 13.5442 27.1849 11.4831C27.1849 9.48083 26.4983 7.63349 25.2517 6.28126Z" fill="#FFBB00"/>
</svg>
