<svg width="31" height="30" viewBox="0 0 31 30" fill="none" xmlns="http://www.w3.org/2000/svg">
<path d="M15.3511 14.5681C16.913 14.5681 18.2655 14.0079 19.3706 12.9026C20.4757 11.7975 21.0359 10.4454 21.0359 8.88328C21.0359 7.32171 20.4757 5.96938 19.3704 4.86393C18.2652 3.75902 16.9128 3.19882 15.3511 3.19882C13.789 3.19882 12.4368 3.75902 11.3317 4.86411C10.2266 5.9692 9.66626 7.32153 9.66626 8.88328C9.66626 10.4454 10.2266 11.7977 11.3319 12.9028C12.4372 14.0077 13.7895 14.5681 15.3511 14.5681Z" fill="#060A0F"/>
<path d="M25.298 21.3477C25.2661 20.8878 25.2016 20.3862 25.1068 19.8564C25.011 19.3227 24.8876 18.8181 24.7399 18.357C24.5874 17.8803 24.38 17.4096 24.1236 16.9585C23.8574 16.4903 23.5448 16.0827 23.194 15.7472C22.8272 15.3962 22.3781 15.1141 21.8588 14.9083C21.3413 14.7035 20.7678 14.5998 20.1543 14.5998C19.9133 14.5998 19.6803 14.6987 19.2303 14.9916C18.9534 15.1722 18.6294 15.3811 18.2679 15.6121C17.9587 15.8091 17.5398 15.9937 17.0225 16.1608C16.5178 16.3241 16.0053 16.407 15.4995 16.407C14.9936 16.407 14.4813 16.3241 13.9761 16.1608C13.4593 15.9939 13.0404 15.8093 12.7316 15.6123C12.3734 15.3835 12.0493 15.1746 11.7682 14.9914C11.3188 14.6985 11.0856 14.5996 10.8446 14.5996C10.231 14.5996 9.65762 14.7035 9.14028 14.9084C8.62132 15.1139 8.17204 15.3961 7.80488 15.7474C7.45428 16.083 7.1415 16.4905 6.87571 16.9585C6.61947 17.4096 6.41203 17.8801 6.25933 18.3571C6.11186 18.8183 5.98851 19.3227 5.89271 19.8564C5.79781 20.3855 5.73335 20.8873 5.70148 21.3483C5.67014 21.7999 5.6543 22.2686 5.6543 22.742C5.6543 23.9741 6.04595 24.9715 6.81827 25.7071C7.58105 26.4329 8.59034 26.8012 9.8177 26.8012H21.1823C22.4097 26.8012 23.4186 26.4331 24.1815 25.7071C24.9541 24.972 25.3457 23.9744 25.3457 22.7418C25.3455 22.2663 25.3295 21.7972 25.298 21.3477Z" fill="#060A0F"/>
</svg>
