<svg width="31" height="30" viewBox="0 0 31 30" fill="none" xmlns="http://www.w3.org/2000/svg">
<path fill-rule="evenodd" clip-rule="evenodd" d="M20.5311 9.08082C20.5311 9.57093 20.1334 9.9687 19.6432 9.9687C19.1531 9.9687 18.7554 9.57093 18.7554 9.08082V7.30507C18.7554 5.50682 17.2981 4.04951 15.4998 4.04951C13.7016 4.04951 12.2443 5.50682 12.2443 7.30507V9.08082C12.2443 9.57093 11.8465 9.9687 11.3564 9.9687C10.8663 9.9687 10.4685 9.57093 10.4685 9.08082V7.30507C10.4685 4.5266 12.7214 2.27376 15.4998 2.27376C18.2783 2.27376 20.5311 4.5266 20.5311 7.30507V9.08082Z" fill="#94A0B0"/>
<path fill-rule="evenodd" clip-rule="evenodd" d="M24.1916 10.679L25.1386 24.885C25.1872 25.6214 24.9291 26.3435 24.426 26.8822C23.9216 27.4208 23.2173 27.7263 22.4809 27.7263H8.51873C7.78239 27.7263 7.078 27.4208 6.57369 26.8822C6.07056 26.3435 5.81248 25.6214 5.86102 24.885L6.80809 10.679C6.90161 9.27971 8.06414 8.19294 9.4658 8.19294H21.5338C22.9355 8.19294 24.098 9.27971 24.1916 10.679ZM18.4428 13.435C17.9196 14.5348 16.7985 15.296 15.4998 15.296C14.2011 15.296 13.0801 14.5348 12.5568 13.435C12.3473 12.9922 11.8169 12.804 11.3741 13.0147C10.9314 13.2243 10.7432 13.7546 10.9527 14.1974C11.7601 15.8974 13.4932 17.0717 15.4998 17.0717C17.5064 17.0717 19.2396 15.8974 20.0469 14.1974C20.2565 13.7546 20.0682 13.2243 19.6255 13.0147C19.1827 12.804 18.6524 12.9922 18.4428 13.435Z" fill="#94A0B0"/>
</svg>
