<svg width="31" height="30" viewBox="0 0 31 30" fill="none" xmlns="http://www.w3.org/2000/svg">
<path fill-rule="evenodd" clip-rule="evenodd" d="M20.7814 9.08082C20.7814 9.57093 20.3836 9.9687 19.8935 9.9687C19.4034 9.9687 19.0056 9.57093 19.0056 9.08082V7.30507C19.0056 5.50682 17.5483 4.04951 15.7501 4.04951C13.9518 4.04951 12.4945 5.50682 12.4945 7.30507V9.08082C12.4945 9.57093 12.0967 9.9687 11.6066 9.9687C11.1165 9.9687 10.7188 9.57093 10.7188 9.08082V7.30507C10.7188 4.5266 12.9716 2.27376 15.7501 2.27376C18.5285 2.27376 20.7814 4.5266 20.7814 7.30507V9.08082Z" fill="#060A0F"/>
<path fill-rule="evenodd" clip-rule="evenodd" d="M24.4418 10.679L25.3889 24.885C25.4374 25.6214 25.1793 26.3435 24.6762 26.8822C24.1719 27.4208 23.4675 27.7263 22.7312 27.7263H8.76898C8.03263 27.7263 7.32825 27.4208 6.82393 26.8822C6.3208 26.3435 6.06272 25.6214 6.11126 24.885L7.05833 10.679C7.15186 9.27971 8.31438 8.19294 9.71605 8.19294H21.7841C23.1857 8.19294 24.3483 9.27971 24.4418 10.679ZM18.6931 13.435C18.1698 14.5348 17.0487 15.296 15.7501 15.296C14.4514 15.296 13.3303 14.5348 12.807 13.435C12.5975 12.9922 12.0671 12.804 11.6244 13.0147C11.1816 13.2243 10.9934 13.7546 11.2029 14.1974C12.0103 15.8974 13.7435 17.0717 15.7501 17.0717C17.7567 17.0717 19.4898 15.8974 20.2972 14.1974C20.5067 13.7546 20.3185 13.2243 19.8757 13.0147C19.433 12.804 18.9026 12.9922 18.6931 13.435Z" fill="#060A0F"/>
</svg>
