<svg width="31" height="30" viewBox="0 0 31 30" fill="none" xmlns="http://www.w3.org/2000/svg">
<path fill-rule="evenodd" clip-rule="evenodd" d="M20.5312 9.08081C20.5312 9.57091 20.1334 9.96868 19.6433 9.96868C19.1532 9.96868 18.7554 9.57091 18.7554 9.08081V7.30505C18.7554 5.5068 17.2981 4.0495 15.4999 4.0495C13.7016 4.0495 12.2443 5.5068 12.2443 7.30505V9.08081C12.2443 9.57091 11.8466 9.96868 11.3565 9.96868C10.8663 9.96868 10.4686 9.57091 10.4686 9.08081V7.30505C10.4686 4.52659 12.7214 2.27374 15.4999 2.27374C18.2783 2.27374 20.5312 4.52659 20.5312 7.30505V9.08081Z" fill="#060A0F"/>
<path fill-rule="evenodd" clip-rule="evenodd" d="M24.1916 10.679L25.1387 24.885C25.1872 25.6214 24.9291 26.3435 24.426 26.8822C23.9217 27.4208 23.2173 27.7262 22.481 27.7262H8.51879C7.78245 27.7262 7.07806 27.4208 6.57375 26.8822C6.07062 26.3435 5.81254 25.6214 5.86108 24.885L6.80815 10.679C6.90167 9.27969 8.0642 8.19293 9.46586 8.19293H21.5339C22.9356 8.19293 24.0981 9.27969 24.1916 10.679ZM18.4429 13.435C17.9196 14.5347 16.7985 15.296 15.4999 15.296C14.2012 15.296 13.0801 14.5347 12.5569 13.435C12.3473 12.9922 11.817 12.804 11.3742 13.0147C10.9315 13.2242 10.7432 13.7546 10.9528 14.1974C11.7601 15.8973 13.4933 17.0717 15.4999 17.0717C17.5065 17.0717 19.2396 15.8973 20.047 14.1974C20.2565 13.7546 20.0683 13.2242 19.6256 13.0147C19.1828 12.804 18.6524 12.9922 18.4429 13.435Z" fill="#060A0F"/>
</svg>
