<svg width="21" height="20" viewBox="0 0 21 20" fill="none" xmlns="http://www.w3.org/2000/svg">
<path d="M2.68555 19.9896C2.1895 20.0185 1.70165 19.8536 1.32488 19.5297C0.581811 18.7822 0.581811 17.575 1.32488 16.8275L17.5956 0.5567C18.3685 -0.166486 19.5812 -0.126285 20.3044 0.64657C20.9583 1.34546 20.9964 2.41967 20.3936 3.16311L4.02703 19.5297C3.65512 19.8489 3.1751 20.0135 2.68555 19.9896Z" fill="#060A0F"/>
<path d="M18.9371 19.9896C18.4344 19.9875 17.9526 19.7879 17.5956 19.4339L1.32481 3.16305C0.636402 2.35914 0.729996 1.14931 1.5339 0.460835C2.25141 -0.153612 3.30959 -0.153612 4.02703 0.460835L20.3936 16.7316C21.1663 17.455 21.2062 18.6678 20.4829 19.4405C20.4541 19.4712 20.4243 19.5009 20.3936 19.5297C19.9929 19.8782 19.4654 20.0447 18.9371 19.9896Z" fill="#060A0F"/>
</svg>
