<svg width="10" height="10" viewBox="0 0 10 10" fill="none" xmlns="http://www.w3.org/2000/svg">
<path d="M1.0116 9.90265C0.768153 9.91681 0.52873 9.83587 0.343821 9.67692C-0.0208569 9.31007 -0.0208569 8.71759 0.343821 8.35074L8.32906 0.365469C8.70836 0.0105475 9.30354 0.0302774 9.65846 0.409574C9.9794 0.752571 9.99811 1.27976 9.70226 1.64463L1.66997 9.67692C1.48744 9.83358 1.25186 9.91436 1.0116 9.90265Z" fill="#060A0F"/>
<path d="M8.98746 9.90265C8.74073 9.9016 8.50425 9.80366 8.32906 9.6299L0.34379 1.6446C0.00593488 1.25006 0.051868 0.656306 0.446404 0.31842C0.798537 0.016866 1.31786 0.016866 1.66997 0.31842L9.70226 8.30369C10.0815 8.65871 10.1011 9.25392 9.74605 9.63312C9.73193 9.64821 9.71734 9.6628 9.70226 9.67692C9.50558 9.84795 9.24673 9.92969 8.98746 9.90265Z" fill="#060A0F"/>
</svg>
