<svg width="20" height="20" viewBox="0 0 20 20" fill="none" xmlns="http://www.w3.org/2000/svg">
<path d="M3.55557 17.8529C3.16563 17.8756 2.78213 17.7459 2.48595 17.4913C1.90182 16.9037 1.90182 15.9547 2.48595 15.3671L15.2764 2.57659C15.884 2.00809 16.8373 2.03969 17.4058 2.64723C17.9199 3.19663 17.9498 4.04107 17.4759 4.6255L4.61012 17.4913C4.31776 17.7423 3.94041 17.8716 3.55557 17.8529Z" fill="#060A0F"/>
<path d="M16.331 17.8529C15.9358 17.8512 15.557 17.6943 15.2764 17.416L2.4859 4.62545C1.94473 3.99349 2.01831 3.04244 2.65026 2.50123C3.2143 2.01821 4.04613 2.01821 4.61012 2.50123L17.4759 15.2917C18.0833 15.8604 18.1147 16.8138 17.5461 17.4212C17.5235 17.4453 17.5001 17.4687 17.4759 17.4913C17.1609 17.7653 16.7463 17.8962 16.331 17.8529Z" fill="#060A0F"/>
</svg>
