<svg xmlns="http://www.w3.org/2000/svg" width="30" height="30" fill="none">
  <path stroke="#060A0F" stroke-width="2" d="M14.19 7.68 15 8.8l.81-1.12c.4-.56.86-1.03 1.35-1.4a5.13 5.13 0 0 1 3.22-1.12c1.6 0 3.07.64 4.14 1.8a6.62 6.62 0 0 1 1.66 4.52c0 1.78-.64 3.45-2.18 5.3-1.41 1.7-3.45 3.45-5.93 5.56l-2.79 2.4a.43.43 0 0 1-.56 0l-2.79-2.4C9.45 20.23 7.41 18.48 6 16.78c-1.54-1.86-2.18-3.52-2.18-5.3 0-1.77.6-3.37 1.66-4.52a5.55 5.55 0 0 1 4.14-1.8c1.18 0 2.26.37 3.22 1.11.5.38.94.85 1.35 1.41Z"/>
</svg>