<svg width="30" height="30" viewBox="0 0 30 30" fill="none" xmlns="http://www.w3.org/2000/svg">
<path d="M22.8757 16.3126H7.12412C6.33654 16.3126 5.81149 15.7876 5.81149 15C5.81149 14.2124 6.33654 13.6874 7.12412 13.6874H22.8757C23.6633 13.6874 24.1883 14.2124 24.1883 15C24.1883 15.7876 23.6633 16.3126 22.8757 16.3126Z" fill="#fff"/>
<path d="M18.9378 24.1884H11.062C10.2744 24.1884 9.74938 23.6634 9.74938 22.8758C9.74938 22.0882 10.2744 21.5631 11.062 21.5631H18.9378C19.7254 21.5631 20.2504 22.0882 20.2504 22.8758C20.2504 23.6634 19.7254 24.1884 18.9378 24.1884Z" fill="#fff"/>
<path d="M26.8136 8.43683H3.18623C2.39865 8.43683 1.8736 7.91178 1.8736 7.1242C1.8736 6.33662 2.39865 5.81157 3.18623 5.81157H26.8136C27.6012 5.81157 28.1262 6.33662 28.1262 7.1242C28.1262 7.91178 27.6012 8.43683 26.8136 8.43683Z" fill="#fff"/>
</svg>
