<svg width="47" height="121" viewBox="0 0 47 121" fill="none" xmlns="http://www.w3.org/2000/svg">
<path d="M0 3.56079C0 1.90393 1.34315 0.560791 3 0.560791H32.9C40.6832 0.560791 47 5.62872 47 11.8731V117.253C47 118.91 45.6569 120.253 44 120.253H14.1C6.3168 120.253 0 115.185 0 108.941V3.56079Z" fill="#060A0F"/>
<path d="M17.5474 61.3202L18.2193 60.485C19.856 62.0248 21.4711 62.6565 23.2094 62.6565C25.1543 62.6565 26.153 61.8729 26.153 60.6642C26.153 57.284 16.709 59.908 16.709 52.7618C16.709 49.3542 19.4707 46.9306 23.829 46.9306C25.1574 46.9306 26.304 47.1523 27.2903 47.5198C28.9548 48.1394 29.5188 50.1803 28.4369 51.5743L27.9037 52.2637C26.7787 51.2554 25.5735 50.6237 23.8351 50.6237C21.8409 50.6237 20.8176 51.4528 20.8176 52.6433C20.8176 55.8505 30.2894 53.7792 30.2894 60.3119C30.2894 64.0232 27.4722 66.3405 23.1694 66.3405C21.2553 66.3405 19.7234 65.9244 18.4751 65.3109C16.9556 64.5638 16.5086 62.6353 17.5566 61.3202H17.5474Z" fill="white"/>
<path d="M21.4648 105.85V89.0456H22.8673C24.3406 89.0456 25.5334 90.224 25.5334 91.6726V108.477H24.131C22.6577 108.477 21.4648 107.298 21.4648 105.85Z" fill="white"/>
<path d="M14.2555 87.3965H16.9155C18.0128 87.3965 19.0053 86.7466 19.4306 85.7474L23.5269 75.8162L21.7207 71.2636L14.2524 87.3995L14.2555 87.3965Z" fill="white"/>
<path d="M27.4568 85.7292L27.4629 85.7231C27.8821 86.7344 28.8808 87.3965 29.9873 87.3965H32.7428L23.7889 67.9867H23.2372L21.7207 71.2606L27.4568 85.7292Z" fill="white"/>
<path fill-rule="evenodd" clip-rule="evenodd" d="M23.4999 33.9186L24.9992 28.8892L28.308 32.1495C29.2997 33.1267 29.2997 34.7105 28.308 35.6877L23.4999 40.4299L18.6918 35.6877C17.7001 34.7105 17.7001 33.1267 18.6918 32.1495L23.4999 27.4073V33.9186Z" fill="white"/>
<path fill-rule="evenodd" clip-rule="evenodd" d="M24.6326 26.2865L29.4407 31.0287C30.4324 32.0059 32.0398 32.0059 33.0315 31.0287L37.8396 26.2865L33.0315 21.5443C32.0398 20.5671 30.4324 20.5671 29.4407 21.5443L26.1319 24.8046L31.2361 26.2865H24.6326Z" fill="white"/>
<path fill-rule="evenodd" clip-rule="evenodd" d="M22.0006 23.6931L23.4999 18.6638V25.1751L28.308 20.4329C29.2997 19.4557 29.2997 17.8719 28.308 16.8947L23.4999 12.1525L18.6918 16.8947C17.7001 17.8719 17.7001 19.4557 18.6918 20.4329L22.0006 23.6931Z" fill="white"/>
<path fill-rule="evenodd" clip-rule="evenodd" d="M22.3672 26.2911L17.5591 21.5489C16.5674 20.5717 14.96 20.5717 13.9683 21.5489L9.16016 26.2911L13.9683 31.0333C14.96 32.0105 16.5674 32.0105 17.5591 31.0333L21.1123 27.5322L20.8679 27.7731L15.7637 26.2957H22.3672V26.2911Z" fill="white"/>
<path d="M31.1891 17.1727L30.1645 18.5574C30.0705 18.6824 30.1645 18.863 30.3196 18.863H32.3735C32.5333 18.863 32.6226 18.6824 32.5286 18.5574L31.504 17.1727C31.4241 17.0661 31.269 17.0661 31.1891 17.1727Z" fill="white"/>
<path d="M15.7262 35.3264L16.7508 33.9417C16.8448 33.8167 16.7508 33.6361 16.5957 33.6361H14.5418C14.382 33.6361 14.2927 33.8167 14.3867 33.9417L15.4113 35.3264C15.4912 35.4329 15.6463 35.4329 15.7262 35.3264Z" fill="white"/>
<path fill-rule="evenodd" clip-rule="evenodd" d="M16.1632 17.6588L15.8248 17.2004C15.7449 17.0939 15.5898 17.0939 15.5099 17.2004L15.1715 17.6588H16.1632ZM14.9318 17.983H16.4076L16.8541 18.5851C16.9481 18.7101 16.8541 18.8907 16.699 18.8907H14.6451C14.4853 18.8907 14.396 18.7101 14.49 18.5851L14.9365 17.983H14.9318Z" fill="white"/>
<path fill-rule="evenodd" clip-rule="evenodd" d="M31.894 34.9466L31.5556 35.4004C31.4804 35.507 31.3206 35.507 31.2407 35.4004L30.9023 34.9466H31.894ZM32.1337 34.6224H30.6579L30.2114 34.0204C30.1174 33.8953 30.2114 33.7147 30.3665 33.7147H32.4204C32.5802 33.7147 32.6695 33.8953 32.5755 34.0204L32.129 34.6224H32.1337Z" fill="white"/>
</svg>
