<svg width="151" height="151" viewBox="0 0 151 151" fill="none" xmlns="http://www.w3.org/2000/svg">
<path fill-rule="evenodd" clip-rule="evenodd" d="M83.297 89.1945L75.5025 115.725L75.5025 81.3963L50.5185 106.392C45.3633 111.549 45.3633 119.9 50.5185 125.058L75.5025 150.053L100.486 125.058C105.642 119.9 105.642 111.549 100.486 106.392L83.297 89.1945Z" fill="white"/>
<path fill-rule="evenodd" clip-rule="evenodd" d="M89.1864 67.6977L81.3835 75.5041L81.3835 75.5042L106.368 100.5C111.523 105.657 119.87 105.657 125.025 100.5L150.009 75.5041L125.025 50.5086C119.87 45.3511 111.523 45.3511 106.368 50.5086L89.1864 67.6977ZM89.1864 67.6977L115.705 75.5042H81.3835L89.1864 67.6977Z" fill="white"/>
<path fill-rule="evenodd" clip-rule="evenodd" d="M67.7015 61.8074L50.5185 44.6165C45.3633 39.4589 45.3633 31.1078 50.5185 25.9503L75.5025 0.946503L100.486 25.942C105.642 31.0996 105.642 39.4507 100.486 44.6082L75.5025 69.6037V69.612L75.5025 35.2836L67.7015 61.8074Z" fill="white"/>
<path fill-rule="evenodd" clip-rule="evenodd" d="M69.6067 75.5039L69.6103 75.5003L69.6162 75.4944L44.6301 50.4969C39.4801 45.3445 31.1165 45.3445 25.9665 50.4969L0.974609 75.5003L25.9606 100.498C31.1106 105.65 39.4743 105.65 44.6243 100.498L63.2819 81.8316L61.8105 83.3022L35.3006 75.5039H69.6067Z" fill="white"/>
<path d="M50.5104 125.058L75.4944 150.053V81.3876L50.5104 106.383C45.3553 111.541 45.3553 119.892 50.5104 125.049V125.058Z" fill="white"/>
<path d="M100.487 44.6165L75.5027 69.612V0.946503L100.487 25.942C105.642 31.0996 105.642 39.4507 100.487 44.6082V44.6165Z" fill="white"/>
<path d="M106.376 100.5L81.3918 75.504H150.026L125.042 100.5C119.887 105.657 111.539 105.657 106.384 100.5H106.376Z" fill="white"/>
<path d="M25.9635 50.5004L0.979492 75.5041H69.6133L44.6293 50.5086C39.4741 45.3511 31.1269 45.3511 25.9717 50.5086L25.9635 50.5004Z" fill="white"/>
<path d="M115.458 27.4235L110.127 34.7171C109.64 35.3866 110.116 36.327 110.944 36.327L121.605 36.327C122.433 36.327 122.909 35.3866 122.422 34.7171L117.092 27.4235C116.686 26.8709 115.861 26.8688 115.458 27.4235Z" fill="white"/>
<path d="M35.1077 123.154L40.4381 115.86C40.9256 115.19 40.4489 114.25 39.6212 114.25H28.9603C28.1326 114.25 27.6559 115.19 28.1435 115.86L33.4739 123.154C33.8791 123.706 34.7046 123.708 35.1077 123.154Z" fill="white"/>
<path fill-rule="evenodd" clip-rule="evenodd" d="M37.3775 29.9937L35.6195 27.5883C35.2143 27.0357 34.3888 27.0336 33.9857 27.5883L32.2277 29.9937L37.3775 29.9937ZM30.9713 31.7128L38.6339 31.7128L40.9499 34.8818C41.4375 35.5514 40.9608 36.4918 40.133 36.4918L29.4722 36.4918C28.6445 36.4918 28.1678 35.5514 28.6553 34.8818L30.9713 31.7128Z" fill="white"/>
<path fill-rule="evenodd" clip-rule="evenodd" d="M119.104 121.166L117.347 123.57C116.944 124.125 116.118 124.123 115.713 123.57L113.956 121.166L119.104 121.166ZM120.361 119.447L112.699 119.447L110.383 116.277C109.895 115.607 110.372 114.667 111.2 114.667L121.86 114.667C122.688 114.667 123.165 115.607 122.677 116.277L120.361 119.447Z" fill="white"/>
</svg>
