<svg width="30" height="30" viewBox="0 0 30 30" fill="none" xmlns="http://www.w3.org/2000/svg">
<path d="M26.2509 21.3853C25.573 20.7073 23.4357 19.1293 21.3138 17.9075C21.2909 17.942 21.2679 17.9764 21.2449 18.0147C23.6387 14.1578 23.1676 9.02159 19.8162 5.67022C15.9095 1.76732 9.57827 1.76732 5.67154 5.67022C1.7648 9.58079 1.76863 15.9082 5.67154 19.8149C8.99226 23.1318 14.0595 23.6336 17.905 21.3125C19.0119 23.2353 20.6244 25.4912 21.3866 26.2534C22.7271 27.5939 24.9103 27.5901 26.2508 26.2496C27.5914 24.9052 27.5914 22.7296 26.2509 21.3853ZM17.1811 17.1798C14.7298 19.6272 10.7618 19.6272 8.31054 17.1759C5.86308 14.7285 5.85925 10.7605 8.31054 8.30918C10.758 5.86173 14.7298 5.86173 17.1773 8.30918C19.6286 10.7605 19.6286 14.7323 17.1811 17.1798Z" fill="#94A0B0"/>
</svg>
