<svg xmlns="http://www.w3.org/2000/svg" display="none">

  <symbol id="email" width="30" height="30" viewBox="0 0 30 30">
    <g>
      <path 
        d="M21.2673 14.0439C21.1541 13.9894 21.0395 13.9376 20.9236 13.8885C20.7217 10.1638 18.6868 8.03209 15.269 8.01027C15.254 8.01027 15.2377 8.01027 15.2227 8.01027C13.1783 8.01027 11.4789 8.88313 10.4328 10.4707L12.3122 11.7595C13.0937 10.5743 14.3198 10.3206 15.224 10.3206C15.2349 10.3206 15.2445 10.3206 15.2554 10.3206C16.3806 10.3275 17.2289 10.6548 17.7785 11.2931C18.1781 11.7581 18.4454 12.3991 18.5777 13.2093C17.5808 13.0401 16.502 12.987 15.3481 13.0538C12.0995 13.2406 10.0114 15.135 10.1505 17.7686C10.2214 19.1038 10.887 20.2535 12.0244 21.0037C12.986 21.6379 14.223 21.9488 15.5104 21.8779C17.2098 21.7852 18.5423 21.136 19.4724 19.9508C20.1789 19.0506 20.6249 17.8845 20.8226 16.4143C21.6328 16.9026 22.2329 17.5463 22.5643 18.3196C23.1275 19.633 23.1603 21.7933 21.3982 23.5541C19.8543 25.0966 17.9981 25.7635 15.194 25.784C12.0831 25.7608 9.73045 24.7638 8.20021 22.819C6.76817 20.9982 6.0276 18.3673 6.00032 15.0014C6.0276 11.6354 6.76817 9.00452 8.20021 7.18378C9.73045 5.23893 12.0831 4.24195 15.194 4.21877C18.3268 4.24195 20.7217 5.24438 22.3092 7.19878C23.088 8.15757 23.6744 9.36185 24.0618 10.7666L26.2644 10.1788C25.7952 8.44943 25.0574 6.95874 24.0522 5.72309C22.0174 3.2177 19.0387 1.93432 15.2022 1.90704H15.1872C11.3575 1.93296 8.41297 3.22179 6.43539 5.73673C4.67466 7.97481 3.76633 11.0885 3.73633 14.9905V15.0095C3.76633 18.9129 4.67466 22.0266 6.43539 24.2633C8.41297 26.7782 11.3575 28.0657 15.1872 28.093H15.2022C18.6064 28.0698 21.0054 27.1778 22.983 25.203C25.5688 22.6185 25.4911 19.3807 24.6387 17.3922C24.0277 15.967 22.8616 14.8091 21.2673 14.0439ZM15.3891 19.5703C13.9652 19.6507 12.4854 19.0111 12.4131 17.6418C12.3586 16.6271 13.136 15.4937 15.4763 15.3587C15.745 15.3437 16.0069 15.3355 16.266 15.3355C17.1171 15.3355 17.9122 15.4187 18.635 15.5755C18.365 18.9443 16.7829 19.4912 15.3891 19.5675V19.5703Z"
        fill="#060A0F" />
    </g>
  </symbol>

  <symbol id="facebook" width="30" height="30" viewBox="0 0 30 30"
    fill="none">
    <g>
      <path 
        d="M16.9859 27.8228V16.1255H20.9106L21.4994 11.5655H16.9859V8.65462C16.9859 7.33481 17.3509 6.43538 19.2456 6.43538L21.6582 6.43439V2.35578C21.241 2.30156 19.8088 2.17725 18.1418 2.17725C14.661 2.17725 12.2779 4.30193 12.2779 8.203V11.5655H8.34131V16.1255H12.2779V27.8228H16.9859Z"
        fill="#060A0F" />
    </g>
  </symbol>

  <symbol id="twitter" width="30" height="30" viewBox="0 0 30 30"
    fill="none">
    <g>
      <path 
        d="M30 5.69816C28.8844 6.18753 27.6956 6.51191 26.4562 6.66941C27.7312 5.90816 28.7044 4.71191 29.1619 3.27003C27.9731 3.97878 26.6606 4.47941 25.2619 4.75878C24.1331 3.55691 22.5244 2.81253 20.7694 2.81253C17.3644 2.81253 14.6231 5.57628 14.6231 8.96441C14.6231 9.45191 14.6644 9.92066 14.7656 10.3669C9.6525 10.1175 5.12813 7.66691 2.08875 3.93378C1.55812 4.85441 1.24688 5.90816 1.24688 7.04253C1.24688 9.17253 2.34375 11.0607 3.97875 12.1538C2.99062 12.135 2.02125 11.8482 1.2 11.3963C1.2 11.415 1.2 11.4394 1.2 11.4638C1.2 14.4525 3.33187 16.935 6.1275 17.5069C5.62687 17.6438 5.08125 17.7094 4.515 17.7094C4.12125 17.7094 3.72375 17.6869 3.35062 17.6044C4.1475 20.04 6.40875 21.8307 9.0975 21.8888C7.005 23.5257 4.34812 24.5119 1.47188 24.5119C0.9675 24.5119 0.48375 24.4894 0 24.4275C2.72438 26.1844 5.95312 27.1875 9.435 27.1875C20.7525 27.1875 26.94 17.8125 26.94 9.68628C26.94 9.41441 26.9306 9.15191 26.9175 8.89128C28.1381 8.02503 29.1637 6.94316 30 5.69816Z"
        fill="#060A0F" />
    </g>
  </symbol>

  <symbol id="insta" width="30" height="30" viewBox="0 0 30 30"
    fill="none">
    <g>
      <path 
        d="M9.2523 3.50412H20.7482C23.9092 3.50412 26.4961 6.08985 26.4961 9.25205V20.7479C26.4961 23.909 23.9092 26.4958 20.7482 26.4958H9.2523C6.09122 26.4958 3.50436 23.909 3.50436 20.7479V9.25205C3.50436 6.08985 6.09122 3.50412 9.2523 3.50412ZM15.0002 19.7897C17.646 19.7897 19.7903 17.6446 19.7903 15C19.7903 12.3542 17.646 10.2099 15.0002 10.2099C12.3556 10.2099 10.2102 12.3542 10.2102 15C10.2102 17.6446 12.3556 19.7897 15.0002 19.7897ZM8.77321 10.2099C9.56759 10.2099 10.2102 9.56645 10.2102 8.77296C10.2102 7.97948 9.56759 7.33598 8.77321 7.33598C7.97883 7.33598 7.33623 7.97948 7.33623 8.77296C7.33623 9.56645 7.97883 10.2099 8.77321 10.2099Z"
        fill="#060A0F" />
    </g>
  </symbol>

  <symbol id="tg" width="30" height="30" viewBox="0 0 30 30"
    fill="none">
    <g>
      <path 
        d="M12.6086 17.9456L12.241 23.1159C12.767 23.1159 12.9947 22.89 13.2679 22.6187L15.7336 20.2623L20.8428 24.0039C21.7798 24.5261 22.44 24.2511 22.6927 23.1418L26.0464 7.42727L26.0473 7.42635C26.3445 6.04119 25.5464 5.49953 24.6334 5.83934L4.92079 13.3864C3.57544 13.9087 3.59581 14.6586 4.69209 14.9985L9.73183 16.566L21.4381 9.24114C21.989 8.87633 22.49 9.07818 22.0779 9.44298L12.6086 17.9456Z"
        fill="#060A0F" />
    </g>
  </symbol>

  <symbol id="wtsp" width="30" height="30" viewBox="0 0 30 30"
    fill="none">
    <g>
      <path 
        d="M17.1872 4.06H12.813C8.60286 4.06 5.1582 7.50465 5.1582 11.7148V14.9954C5.1582 17.948 6.88053 20.6545 9.53237 21.9121V25.5754C9.53237 25.9035 9.94245 26.0675 10.1612 25.8215L13.3324 22.6502H17.1872C21.3973 22.6502 24.8419 19.2055 24.8419 14.9954V11.7148C24.8419 7.50465 21.3973 4.06 17.1872 4.06ZM20.0577 18.4127L18.9368 19.5063C17.7613 20.6545 14.7267 19.3422 12.0475 16.6084C9.36834 13.8745 8.19278 10.8126 9.31366 9.6644L10.4072 8.57086C10.8173 8.16078 11.5007 8.18812 11.9655 8.5982L13.5511 10.2385C14.1252 10.8126 13.8792 11.7968 13.1411 12.0155C12.6216 12.1795 12.2662 12.7537 12.4303 13.2731C12.7036 14.476 14.2346 16.0069 15.3828 16.3077C15.9022 16.417 16.4764 16.1436 16.6677 15.6242C16.9138 14.8861 17.898 14.6674 18.4447 15.2415L20.0304 16.8818C20.4678 17.2645 20.4678 17.948 20.0577 18.4127ZM15.9843 9.25432C15.8749 9.25432 15.7656 9.25432 15.6562 9.28166C15.4648 9.309 15.2735 9.14497 15.2461 8.9536C15.2188 8.76223 15.3828 8.57086 15.5742 8.54352C15.7109 8.51618 15.8476 8.51618 15.9843 8.51618C17.98 8.51618 19.6203 10.1565 19.6203 12.1522C19.6203 12.2889 19.6203 12.4256 19.593 12.5623C19.5656 12.7537 19.3742 12.9177 19.1829 12.8903C18.9915 12.863 18.8275 12.6716 18.8548 12.4803C18.8548 12.3709 18.8821 12.2616 18.8821 12.1522C18.9095 10.5666 17.5972 9.25432 15.9843 9.25432ZM18.1713 12.1795C18.1713 12.3709 18.0073 12.5349 17.8159 12.5349C17.6246 12.5349 17.4605 12.3709 17.4605 12.1795C17.4605 11.3867 16.8044 10.7306 16.0116 10.7306C15.8202 10.7306 15.6562 10.5666 15.6562 10.3752C15.6562 10.1838 15.8202 10.0198 16.0116 10.0198C17.1872 9.99246 18.1713 10.9766 18.1713 12.1795ZM20.9599 13.3551C20.9052 13.5465 20.7138 13.6832 20.4951 13.6285C20.3038 13.5738 20.1944 13.3824 20.2491 13.1911C20.3311 12.863 20.3584 12.5349 20.3584 12.1795C20.3584 9.77375 18.3901 7.80538 15.9843 7.80538C15.8749 7.80538 15.7656 7.80538 15.6562 7.80538C15.4648 7.80538 15.2735 7.66868 15.2735 7.47731C15.2735 7.28595 15.4102 7.09458 15.6015 7.09458C15.7382 7.09458 15.8749 7.06724 15.9843 7.06724C18.8001 7.06724 21.0966 9.36367 21.0966 12.1795C21.0966 12.5623 21.0419 12.9724 20.9599 13.3551Z"
        fill="#060A0F" />
    </g>
  </symbol>

  <view id="radio" width="25" height="25" viewBox="0 0 25 25" fill="none">
    <circle cx="12.5" cy="12.5" r="11.5" fill="white" stroke="#060A0F" stroke-width="2"/>
  </view>
</svg>